<?xml version="1.0" encoding="UTF-8"?>
<svg version="1.1" xmlns="http://www.w3.org/2000/svg" width="1024" height="1024">
<path d="M0 0 C337.92 0 675.84 0 1024 0 C1024 337.92 1024 675.84 1024 1024 C686.08 1024 348.16 1024 0 1024 C0 686.08 0 348.16 0 0 Z " fill="#FEFEFE" transform="translate(0,0)"/>
<path d="M0 0 C9.55703118 7.90179279 13.70790891 18.35920268 14.8671875 30.58203125 C15.92714736 49.87953574 15.92714736 49.87953574 11 59 C10.48308594 59.96035156 9.96617187 60.92070312 9.43359375 61.91015625 C8.39881093 63.80268675 7.34583623 65.68545911 6.26953125 67.5546875 C2.79522175 74.24674211 3.44970307 80.85040168 5.5625 87.875 C9.90130177 99.93565526 18.62878213 108.37780112 28.125 116.625 C28.77597656 117.19347656 29.42695313 117.76195312 30.09765625 118.34765625 C31.32237062 119.41142253 32.55863359 120.46210943 33.80859375 121.49609375 C40.4512291 127.42860327 45.88543923 137.11069823 47 146 C47.76610085 159.84874608 46.18929954 171.60491402 36.7265625 182.4609375 C29.80427633 188.63148219 20.79641975 192.39122574 12 195 C11.24847656 195.22558594 10.49695313 195.45117188 9.72265625 195.68359375 C-3.33563141 198.92026334 -18.51181458 198.53887163 -30.26171875 191.6796875 C-45.11889299 181.3221146 -55.77113903 161.2063113 -61.98022461 144.65820312 C-63.03089066 141.91947868 -64.15473034 139.22132138 -65.296875 136.51953125 C-68.03287255 129.97686312 -70.5944325 123.37436018 -73.125 116.75 C-73.55425781 115.63109375 -73.98351562 114.5121875 -74.42578125 113.359375 C-75.25529011 111.19499496 -76.08253744 109.02974647 -76.90722656 106.86352539 C-77.55349681 105.1700259 -78.20454594 103.47831562 -78.86621094 101.79077148 C-87.38811379 79.82941781 -96.72251666 47.30548765 -87.26171875 24.43359375 C-85.14047095 20.34214675 -82.87399951 16.60823296 -80 13 C-79.52175781 12.39671875 -79.04351562 11.7934375 -78.55078125 11.171875 C-61.18953129 -8.24473705 -22.00065268 -15.47461638 0 0 Z " fill="#010101" transform="translate(482,438)"/>
<path d="M0 0 C8.20696877 6.20105587 13.63666436 13.67507846 18.49609375 22.64453125 C18.82915527 23.2384668 19.1622168 23.83240234 19.50537109 24.44433594 C31.90401685 46.9225432 36.61261248 72.64073906 39.9609375 97.78417969 C40.47638333 101.50235006 41.06503376 105.2000803 41.68359375 108.90234375 C43.64097592 120.86126925 44.86531592 132.57767539 44.93359375 144.70703125 C44.94366455 145.84237305 44.95373535 146.97771484 44.96411133 148.14746094 C44.82952187 160.98023191 41.58059385 171.5993206 33.12109375 181.39453125 C32.25484375 182.13703125 31.38859375 182.87953125 30.49609375 183.64453125 C29.94566406 184.1240625 29.39523437 184.60359375 28.828125 185.09765625 C20.05275626 192.2626996 9.40753978 195.3007083 -1.50390625 197.64453125 C-2.6640625 197.91716797 -2.6640625 197.91716797 -3.84765625 198.1953125 C-15.41010592 200.15072678 -25.70697579 199.53207024 -35.50390625 192.64453125 C-43.60186455 186.61294851 -49.42586742 176.51813103 -51.50390625 166.64453125 C-52.93933004 152.55723182 -50.60021495 140.32040043 -46.23022461 126.99609375 C-42.94353695 116.35495912 -41.77620065 106.03733235 -46.50390625 95.64453125 C-50.42351073 88.50525166 -55.77938582 84.43288085 -62.94140625 80.83203125 C-75.14265103 74.33136805 -82.44144186 60.99418333 -86.50390625 48.08203125 C-88.33440881 40.11815648 -89.21751951 30.19229295 -85.73046875 22.56640625 C-75.09905998 5.90827531 -57.80445911 -3.36129355 -39.14453125 -7.93359375 C-24.84691625 -10.2178281 -11.96212588 -8.36040926 0 0 Z " fill="#010101" transform="translate(632.50390625,437.35546875)"/>
<path d="M0 0 C4.94199789 3.43791157 9.7205411 8.27529492 11.875 14 C12.2109375 17.27734375 12.2109375 17.27734375 12.25 20.9375 C12.27835938 22.14277344 12.30671875 23.34804688 12.3359375 24.58984375 C11.79425063 28.5974085 10.68226845 30.15182418 7.875 33 C3.48765707 36.06093693 0.16936645 36.38684536 -4.95703125 35.5625 C-12.43126247 33.62324001 -16.45865979 27.36227769 -20.2734375 21.12109375 C-22.06488621 16.65890728 -21.64723256 11.7065404 -21.125 7 C-16.52460084 -1.34887255 -8.56542986 -2.74093756 0 0 Z " fill="#040404" transform="translate(543.125,410)"/>
<path d="M0 0 C4.00951275 1.88945499 6.3849055 4.91601656 8 9 C9.07486164 17.20615518 8.66918898 24.11985314 3.83203125 30.99609375 C0.30240621 34.85685632 -3.09279152 36.77636858 -8.3359375 37.1796875 C-12.40245462 36.97703715 -14.56032375 36.3249781 -17.875 33.875 C-22.84881475 27.14572122 -24.06193077 21.29260546 -23 13 C-21.59545521 8.31024875 -19.00367092 3.83556075 -15.03515625 0.8515625 C-10.24780156 -1.15159167 -5.03280518 -0.80576042 0 0 Z " fill="#070708" transform="translate(480,387)"/>
<path d="M0 0 C4.88346595 2.69851178 8.23759812 6.71279437 10 12 C10.73577072 17.75144718 10.19751621 22.02608589 7 27 C4.64755558 29.84253701 2.64329424 30.81228287 -1.0859375 31.23828125 C-4.95853171 31.36384318 -7.36855151 31.35080471 -10.8125 29.4375 C-16.22364147 23.40794236 -17.77531433 18.9916885 -17.53125 10.88671875 C-16.71081011 6.42859315 -14.48420426 3.78916869 -11 1 C-7.47479562 -0.76260219 -3.83832999 -0.65961481 0 0 Z " fill="#090909" transform="translate(441,387)"/>
<path d="M0 0 C4.29659493 1.98916432 7.11529623 4.53905971 9.30078125 8.80859375 C10.93681167 13.93604103 11.40679129 20.10301083 9.01171875 25.03515625 C5.69590899 29.21328186 2.77365775 30.7700814 -2.375 31.4375 C-6.84295845 30.89826364 -9.16776656 29.34644296 -12 26 C-15.70584816 20.92883936 -16.77816538 15.87414828 -16.5 9.6328125 C-15.80860209 5.99217038 -14.60897021 3.78248011 -11.9765625 1.1875 C-8.1149839 -1.13249979 -4.30428939 -0.86927017 0 0 Z " fill="#060707" transform="translate(571,392)"/>
<path d="M0 0 C3.56845274 3.15351638 5.31041044 5.78192734 6.00390625 10.55078125 C6.28624498 15.96986327 5.37668729 19.18727389 1.6875 23.375 C-2.0157488 26.54921326 -5.43826849 26.90715375 -10.1640625 26.71875 C-13.55044235 26.17692922 -15.07887555 24.93709863 -17.3125 22.375 C-20.23822414 17.12887396 -20.87915861 13.23047231 -20.3125 7.375 C-18.81532018 4.16675753 -17.03731464 1.64567886 -14.3125 -0.625 C-9.03026236 -2.38574588 -4.93564139 -2.42125804 0 0 Z " fill="#070808" transform="translate(606.3125,389.625)"/>
<path d="M0 0 C3.97180237 1.71027789 7.04488457 3.98518985 10 7.125 C11.6015194 11.72936828 11.80099026 16.19405843 11 21 C8.5625 24.125 8.5625 24.125 6 26 C5.67 26.33 5.34 26.66 5 27 C0.44494534 27.62257668 -4.10521391 28.05600071 -8.21484375 25.765625 C-11.44694991 23.00501002 -14.68851644 20.10432499 -15.3359375 15.73046875 C-15.42468004 9.95332931 -14.96380815 6.53006645 -11 2 C-7.26442554 -0.49038297 -4.32482118 -0.75415031 0 0 Z " fill="#070808" transform="translate(409,400)"/>
<path d="M0 0 C3.63467079 1.62400184 4.77408696 2.66113044 7 6 C7.77901124 11.87799393 7.45823253 17.04320005 4 22 C-2.06072049 27.94758704 -2.06072049 27.94758704 -6.0234375 28.0546875 C-6.79945313 27.99539063 -7.57546875 27.93609375 -8.375 27.875 C-9.53128906 27.80925781 -9.53128906 27.80925781 -10.7109375 27.7421875 C-14.07766646 26.65058596 -15.16930042 24.98154205 -17 22 C-17.93300486 16.91673213 -18.08140775 11.46412377 -15.9765625 6.66796875 C-11.52394387 0.25889649 -7.3363799 -0.85096849 0 0 Z " fill="#050606" transform="translate(635,395)"/>
<path d="M0 0 C4.51150655 2.38798709 8.31078101 5.63910434 11 10 C11.60187325 13.38350367 11.51960773 16.60560599 11 20 C8.80873184 23.09799981 7.58943664 23.80352112 4 25 C-6.34899342 26.13725202 -6.34899342 26.13725202 -10.5 22.875 C-14.00895333 18.83970367 -15.74007854 15.81945022 -16.5 10.5 C-15.83178553 5.82249871 -14.31055656 4.31055656 -11 1 C-7.46680053 -0.76659973 -3.84738851 -0.65552639 0 0 Z " fill="#080909" transform="translate(386,423)"/>
<path d="M0 0 C4.44626308 1.84844645 7.32963573 3.99445359 10 8 C10.45256282 12.07306536 10.44033197 14.26611339 8.3125 17.8125 C4.02935821 21.86412061 -0.04696354 22.45962237 -5.78515625 22.31640625 C-10.35804468 21.66313647 -13.05756537 19.16233604 -15.875 15.6875 C-17.34492852 12.17600409 -17.47195807 9.77566459 -17 6 C-12.56065883 -0.80698979 -7.7030928 -0.94344744 0 0 Z " fill="#080909" transform="translate(375,453)"/>
<path d="M0 0 C4.51315789 2.02631579 4.51315789 2.02631579 6 5 C6.66712053 9.07027966 6.7349409 12.58996681 4.80078125 16.30078125 C1.72999012 20.53182092 -0.84756155 23.46425465 -6.18359375 24.37109375 C-10.29745314 24.49229931 -12.47650408 24.3205077 -16.0625 22.125 C-18.79708327 17.71438182 -18.88405906 14.06103534 -18 9 C-13.77988833 0.71049493 -8.87404779 -1.09130685 0 0 Z " fill="#050606" transform="translate(661,414)"/>
<path d="M0 0 C0.66 0.33 1.32 0.66 2 1 C1.51789062 1.47050781 1.03578125 1.94101562 0.5390625 2.42578125 C-0.40839844 3.35970703 -0.40839844 3.35970703 -1.375 4.3125 C-2.00148438 4.92738281 -2.62796875 5.54226563 -3.2734375 6.17578125 C-5.18086607 8.08812528 -5.18086607 8.08812528 -7 11 C-6.58485103 6.1565954 -4.53791301 4.18412171 -1 1 C-0.67 0.67 -0.34 0.34 0 0 Z " fill="#343535" transform="translate(529,410)"/>
<path d="M0 0 C0.66 0.33 1.32 0.66 2 1 C-0.64 3.64 -3.28 6.28 -6 9 C-6.33 8.34 -6.66 7.68 -7 7 C-4.78071806 4.09197539 -3.07030857 2.04687238 0 0 Z " fill="#363737" transform="translate(651,414)"/>
<path d="M0 0 C0.66 0.33 1.32 0.66 2 1 C-0.64 3.64 -3.28 6.28 -6 9 C-6 6 -6 6 -3.5625 3.375 C-2.716875 2.59125 -1.87125 1.8075 -1 1 C-0.67 0.67 -0.34 0.34 0 0 Z " fill="#2E2F2F" transform="translate(626,395)"/>
</svg>
